<svg height="512" viewBox="0 0 64 64" width="512" xmlns="http://www.w3.org/2000/svg"><g id="flat"><path d="m52 62a3 3 0 0 1 -3-3c0-1.278 1.522-3.62 2.177-4.568a1.038 1.038 0 0 1 1.646 0c.655.948 2.177 3.29 2.177 4.568a3 3 0 0 1 -3 3zm0-5.146a7.457 7.457 0 0 0 -1 2.146 1 1 0 0 0 2 0 7.462 7.462 0 0 0 -1-2.146z" fill="#7fcac9"/><path d="m11 39h24v22h-24z" fill="#e97424" transform="matrix(-1 0 0 -1 46 100)"/><path d="m17 39v6l6 8 6-8v-6z" fill="#b11e48"/><path d="m11 57h24v4h-24z" fill="#e97424"/><path d="m11 53h24v4h-24z" fill="#f9bb4b"/><path d="m14 17h18v18h-18z" fill="#ffd782"/><path d="m17 30h12v2h-12z" fill="#394d5c"/><rect fill="#e97424" height="4" rx="2" width="24" x="11" y="13"/><path d="m14.97 8a10.138 10.138 0 0 1 6.03-2.86v-.14a2.015 2.015 0 0 1 2-2 2.006 2.006 0 0 1 2 2v.14a10.138 10.138 0 0 1 6.03 2.86l1.35 2a7.313 7.313 0 0 1 .62 3h-20a7.313 7.313 0 0 1 .62-3z" fill="#f9bb4b"/><path d="m23 3a2 2 0 0 1 2 2v8a0 0 0 0 1 0 0h-4a0 0 0 0 1 0 0v-8a2 2 0 0 1 2-2z" fill="#e1462b"/><path d="m18 8v2h-4.38a7.12 7.12 0 0 1 1.35-2z" fill="#fcf05a"/><path d="m32.38 10h-4.38v-2h3.03a7.12 7.12 0 0 1 1.35 2z" fill="#fcf05a"/><path d="m20 39 3 4 3-4z" fill="#ffd782"/><rect fill="#195c85" height="10" rx="5" width="24" x="11" y="17"/><path d="m19 17h8v4h-8z" fill="#7fcac9"/><path d="m9 39h2a0 0 0 0 1 0 0v22a0 0 0 0 1 0 0h-6a0 0 0 0 1 0 0v-18a4 4 0 0 1 4-4z" fill="#b11e48"/><path d="m41 46v-4a2.978 2.978 0 0 0 -3-3h-3v13h14v-6z" fill="#b11e48"/><path d="m49 38h6a0 0 0 0 1 0 0v14a3 3 0 0 1 -3 3 3 3 0 0 1 -3-3v-14a0 0 0 0 1 0 0z" fill="#143441"/><circle cx="52" cy="35" fill="#5f79ba" r="3"/><path d="m49 41h3v2h-3z" fill="#aabece"/><path d="m22 53h2v8h-2z" fill="#f4f4e6"/><rect fill="#ffd782" height="6" rx="2" transform="matrix(-1 0 0 -1 112 98)" width="6" x="53" y="46"/></g></svg>